<svg width="40" height="27" viewBox="0 0 40 27" fill="none" xmlns="http://www.w3.org/2000/svg">
<mask id="mask0" mask-type="alpha" maskUnits="userSpaceOnUse" x="11" y="0" width="16" height="27">
<path fill-rule="evenodd" clip-rule="evenodd" d="M11.1025 0H26.8072V26.4601H11.1025V0Z" fill="white"/>
</mask>
<g mask="url(#mask0)">
<path fill-rule="evenodd" clip-rule="evenodd" d="M23.452 -0.000244141H26.8072L14.4577 26.46H11.1025L23.452 -0.000244141Z" fill="#5095E5"/>
</g>
<mask id="mask1" mask-type="alpha" maskUnits="userSpaceOnUse" x="5" y="0" width="17" height="27">
<path fill-rule="evenodd" clip-rule="evenodd" d="M5.50317 0H21.2079V26.4601H5.50317V0Z" fill="white"/>
</mask>
<g mask="url(#mask1)">
<path fill-rule="evenodd" clip-rule="evenodd" d="M17.8527 -0.000244141H21.2079L8.85895 26.46H5.50317L17.8527 -0.000244141Z" fill="#5095E5"/>
</g>
<mask id="mask2" mask-type="alpha" maskUnits="userSpaceOnUse" x="0" y="0" width="16" height="27">
<path fill-rule="evenodd" clip-rule="evenodd" d="M0 0H15.2622V26.4601H0V0Z" fill="white"/>
</mask>
<g mask="url(#mask2)">
<path fill-rule="evenodd" clip-rule="evenodd" d="M13.0488 -0.000244141H15.2622L3.18225 26.46H0L11.6398 0.963833C11.8822 0.433286 12.5156 -0.000244141 13.0488 -0.000244141Z" fill="#5095E5"/>
</g>
<mask id="mask3" mask-type="alpha" maskUnits="userSpaceOnUse" x="22" y="0" width="18" height="27">
<path fill-rule="evenodd" clip-rule="evenodd" d="M22.9453 0H40V26.4601H22.9453V0Z" fill="white"/>
</mask>
<g mask="url(#mask3)">
<path fill-rule="evenodd" clip-rule="evenodd" d="M27.2396 -0.000244141H25.5371L22.9453 5.80473L32.1665 26.46H40L28.6175 0.963833C28.3805 0.433286 27.761 -0.000244141 27.2396 -0.000244141Z" fill="#5095E5"/>
</g>
</svg>
